<svg xmlns="http://www.w3.org/2000/svg" width="15" height="11" viewBox="0 0 15 11" fill="none">
  <g clip-path="url(#clip0_18_734)">
    <path d="M7.48666 1.16443C3.89974 1.16443 0.703484 4.89282 0.568997 5.05176C0.477001 5.16005 0.477001 5.31899 0.568997 5.42785C0.64934 5.52274 1.82422 6.88682 3.51841 7.9732L5.34302 6.14859C5.22425 5.86914 5.15788 5.56231 5.15788 5.23979C5.15788 3.95548 6.20234 2.91102 7.48666 2.91102C7.8092 2.91102 8.116 2.97739 8.39546 3.09615L9.89577 1.59584C9.16453 1.33442 8.3617 1.16443 7.48666 1.16443Z" fill="#A39B9B"/>
    <path d="M14.4212 5.074C14.3467 4.96629 13.1107 3.22668 11.0328 2.10538L12.6415 0.496768C12.755 0.38324 12.755 0.198674 12.6415 0.0851462C12.5279 -0.028382 12.3434 -0.028382 12.2298 0.0851462L2.33252 9.98251C2.21899 10.096 2.21899 10.2806 2.33252 10.3941C2.38899 10.4512 2.46352 10.4797 2.53805 10.4797C2.61258 10.4797 2.68708 10.4512 2.74414 10.3947L4.56933 8.56952C5.46882 9.00849 6.46088 9.31532 7.4867 9.31532C11.0736 9.31532 14.2699 5.58693 14.4044 5.42799C14.4888 5.32726 14.4963 5.18229 14.4212 5.074ZM7.4867 7.56873C6.94933 7.56873 6.46088 7.37835 6.06615 7.07212L9.31887 3.81941C9.6251 4.21413 9.81548 4.70261 9.81548 5.23995C9.81548 6.52427 8.77102 7.56873 7.4867 7.56873Z" fill="#A39B9B"/>
  </g>
  <defs>
    <clipPath id="clip0_18_734">
      <rect width="14" height="10.5068" fill="white" transform="translate(0.5)"/>
    </clipPath>
  </defs>
</svg>
