<svg width="12" height="12" viewBox="0 0 12 12" fill="none" xmlns="http://www.w3.org/2000/svg">
<path id="Combined Shape2" fill-rule="evenodd" clip-rule="evenodd" d="M11.8496 9.68699V4.87288V2.47249C11.8496 1.21899 10.8423 0.199951 9.60373 0.199951H2.47553C1.23695 0.199951 0.230042 1.21899 0.230042 2.47249V4.87288V9.68699C0.230042 10.9409 1.23695 11.96 2.47553 11.96H9.60414C10.8423 11.96 11.8496 10.9409 11.8496 9.68699ZM8.08534 6.07933C8.08534 7.2208 7.16649 8.14906 6.03942 8.14906C4.91195 8.14906 3.99392 7.22039 3.99515 6.07891C3.99557 5.62832 4.14 5.21229 4.38195 4.87247C4.75435 4.35108 5.358 4.00959 6.04066 4.00959C6.72291 4.00959 7.32697 4.35149 7.69854 4.87288C7.93967 5.2127 8.08534 5.62873 8.08534 6.07933ZM10.5053 3.54734V1.81243V1.55423L10.2489 1.55506L8.53551 1.56048L8.54209 3.554L10.5053 3.54734ZM6.03983 9.29553C7.79236 9.29553 9.21775 7.85213 9.21775 6.07933C9.21775 5.65289 9.13258 5.24519 8.98156 4.87288H10.7168V9.68699C10.7168 10.3092 10.2168 10.8131 9.60332 10.8131H2.47512C1.86077 10.8131 1.36163 10.3092 1.36163 9.68699V4.87288H3.09605C2.94627 5.24519 2.86233 5.65289 2.86233 6.07933C2.86233 7.85213 4.28731 9.29553 6.03983 9.29553Z" fill="black"/>
</svg>
