<svg width="18" height="13" viewBox="0 0 18 13" fill="none" xmlns="http://www.w3.org/2000/svg">
<path id="Mask" fill-rule="evenodd" clip-rule="evenodd" d="M14.3613 2.29397L14.3304 2.27314C13.6922 1.65847 12.9407 1.36677 12.076 1.40844L12.0451 1.34593L12.0657 1.33551C12.8481 1.15841 13.3113 0.970884 13.4554 0.762524C13.4966 0.595836 13.4451 0.502074 13.2701 0.481238C12.8789 0.533328 12.5084 0.616672 12.1892 0.752106C12.601 0.481238 12.7554 0.293713 12.6628 0.199951C12.2613 0.210369 11.8187 0.41873 11.3657 0.83545C11.5304 0.543746 11.6025 0.377057 11.5613 0.356221C11.3348 0.502074 11.1496 0.668762 10.9848 0.845868C10.6349 1.24175 10.3569 1.60638 10.1407 1.93976L10.1304 1.9606C9.58487 2.86696 9.19369 3.77333 8.96723 4.70053L8.88487 4.77346L8.86429 4.78388C8.53488 4.36716 8.13341 4.01295 7.65989 3.73166C7.10401 3.35661 6.4452 3.01282 5.68344 2.66902C4.85992 2.23146 4.01582 1.87725 3.17171 1.59597C3.16141 2.56484 3.63494 3.32536 4.5511 3.88793V3.89835C4.23199 3.89835 3.91288 3.95044 3.60406 4.0442C3.66582 4.94015 4.29375 5.55481 5.47756 5.88819L5.46727 5.90902C5.00404 5.87777 4.62316 6.04446 4.32463 6.38825C4.71581 7.15919 5.4055 7.52382 6.40402 7.50298C6.20844 7.60716 6.05403 7.71134 5.95109 7.83636C5.76579 8.0343 5.70403 8.2635 5.76579 8.52395C5.98197 8.91983 6.36285 9.09694 6.92902 9.06568L6.9599 9.10736L6.9496 9.12819C5.97167 10.1492 4.78786 10.6075 3.40847 10.5138L3.38788 10.5242C2.54377 10.5138 1.6379 10.1075 0.659973 9.29488C1.6379 10.7221 2.94524 11.7535 4.5614 12.4099C6.40402 13.0245 8.25694 13.0766 10.0996 12.5453H10.1304C11.9216 12.0244 13.4348 10.9409 14.6907 9.31572C15.2671 8.47186 15.6274 7.65925 15.7716 6.8779C16.7083 6.90915 17.3774 6.63829 17.7995 6.05488L17.7892 6.03404C17.4701 6.14864 16.8627 6.11738 15.9671 5.92986V5.82568C16.9554 5.71108 17.5421 5.38812 17.7274 4.8568C17.0377 5.12767 16.3583 5.13809 15.6892 4.87764C15.5657 3.94002 15.123 3.07532 14.3613 2.29397Z" fill="#C2D1D9"/>
</svg>
